<svg xmlns="http://www.w3.org/2000/svg" width="23" height="23" viewBox="0 0 23 23">
  <g id="Group_7" data-name="Group 7" transform="translate(-94.117 -353.751)">
    <g id="Group_6" data-name="Group 6" transform="translate(94.117 353.751)">
      <path id="Path_9" data-name="Path 9" d="M105.617,355.823c3.071,0,3.434.012,4.647.067a6.35,6.35,0,0,1,2.135.4,3.812,3.812,0,0,1,2.183,2.183,6.362,6.362,0,0,1,.4,2.135c.055,1.213.066,1.576.066,4.647s-.012,3.434-.066,4.647a6.362,6.362,0,0,1-.4,2.135,3.806,3.806,0,0,1-2.183,2.183,6.366,6.366,0,0,1-2.135.4c-1.213.055-1.576.067-4.647.067s-3.434-.012-4.647-.067a6.361,6.361,0,0,1-2.135-.4,3.806,3.806,0,0,1-2.183-2.183,6.362,6.362,0,0,1-.4-2.135c-.055-1.213-.066-1.576-.066-4.647s.011-3.434.066-4.647a6.362,6.362,0,0,1,.4-2.135,3.812,3.812,0,0,1,2.183-2.183,6.345,6.345,0,0,1,2.135-.4c1.213-.056,1.576-.067,4.647-.067m0-2.072c-3.123,0-3.515.013-4.742.069a8.423,8.423,0,0,0-2.791.535,5.874,5.874,0,0,0-3.363,3.363,8.426,8.426,0,0,0-.535,2.791c-.056,1.227-.069,1.619-.069,4.742s.013,3.515.069,4.742a8.421,8.421,0,0,0,.535,2.791,5.878,5.878,0,0,0,3.363,3.364,8.445,8.445,0,0,0,2.791.534c1.227.056,1.619.069,4.742.069s3.515-.013,4.742-.069a8.445,8.445,0,0,0,2.791-.534,5.883,5.883,0,0,0,3.364-3.364,8.446,8.446,0,0,0,.534-2.791c.056-1.227.069-1.619.069-4.742s-.013-3.515-.069-4.742a8.451,8.451,0,0,0-.534-2.791,5.878,5.878,0,0,0-3.364-3.363,8.423,8.423,0,0,0-2.791-.535c-1.227-.056-1.619-.069-4.742-.069" transform="translate(-94.117 -353.751)" fill="#757268"/>
      <path id="Path_10" data-name="Path 10" d="M106.4,360.076a5.958,5.958,0,1,0,5.958,5.958,5.959,5.959,0,0,0-5.958-5.958m0,9.826a3.867,3.867,0,1,1,3.867-3.867A3.867,3.867,0,0,1,106.4,369.9" transform="translate(-94.9 -354.534)" fill="#757268"/>
      <path id="Path_11" data-name="Path 11" d="M115.234,359.62a1.367,1.367,0,1,1-1.367-1.368,1.367,1.367,0,0,1,1.367,1.368" transform="translate(-96.22 -354.266)" fill="#757268"/>
    </g>
  </g>
</svg>
