<svg xmlns="http://www.w3.org/2000/svg" width="157.967" height="52.745" viewBox="0 0 157.967 52.745">
  <g id="Group_47" data-name="Group 47" transform="translate(-167.431 -220.518)">
    <path id="Path_15" data-name="Path 15" d="M333.127,227.811h-5.135l3.631-3.631-2.158-2.158-3.631,3.631v-5.135h-3.052v5.135l-3.631-3.631-2.158,2.158,3.631,3.631H315.49v3.052h5.135l-3.631,3.631,2.158,2.158,3.631-3.631v5.135h3.052v-5.135l3.631,3.631,2.158-2.158-3.631-3.631h5.135Z" transform="translate(-7.729 0)" fill="#fccb00"/>
    <g id="Group_15" data-name="Group 15" transform="translate(167.431 226.817)">
      <path id="Path_16" data-name="Path 16" d="M167.431,228.213h8.383v17.758H194.5V228.213h8.382v44.458H194.5V253.919h-18.69v18.752h-8.383Z" transform="translate(-167.431 -227.219)"/>
      <path id="Path_17" data-name="Path 17" d="M214.273,228.213h8.259l13.6,23.533h.5l13.6-23.533h8.321v44.458h-8.321V250.753l.5-7.452h-.5l-11.3,19.932h-5.03L222.532,243.3h-.5l.5,7.452v21.919h-8.259Z" transform="translate(-169.876 -227.219)"/>
      <path id="Path_18" data-name="Path 18" d="M290.754,248.214h21.8a14.885,14.885,0,0,1,.311,1.8,18.16,18.16,0,0,1,.124,2.112,24.635,24.635,0,0,1-1.3,8.072,18.687,18.687,0,0,1-4.1,6.767,20.543,20.543,0,0,1-7.14,4.906,24.474,24.474,0,0,1-9.5,1.738,24.059,24.059,0,0,1-9.127-1.738,22.7,22.7,0,0,1-7.451-4.843,23.222,23.222,0,0,1-5.03-7.359,24.053,24.053,0,0,1,0-18.566,23.238,23.238,0,0,1,5.03-7.358,22.711,22.711,0,0,1,7.451-4.843,25.387,25.387,0,0,1,18.783.124,21.648,21.648,0,0,1,7.3,5.153l-5.775,5.651A15.786,15.786,0,0,0,285.1,236.2a14.472,14.472,0,0,0-4.781,3.073,14.666,14.666,0,0,0-3.26,4.813,17.014,17.014,0,0,0,0,12.6,14.4,14.4,0,0,0,3.291,4.812,14.807,14.807,0,0,0,4.813,3.074,17.082,17.082,0,0,0,11.828.063,14.018,14.018,0,0,0,4.192-2.64,10.072,10.072,0,0,0,2.142-2.825,16.023,16.023,0,0,0,1.4-3.819H290.754Z" transform="translate(-172.653 -227.164)"/>
    </g>
  </g>
</svg>
