<svg xmlns="http://www.w3.org/2000/svg" width="78.569" height="70.338" viewBox="0 0 78.569 70.338">
  <path id="mail" d="M78.537,53.553v33.4A8.646,8.646,0,0,1,69.9,95.587H8.636A8.646,8.646,0,0,1,0,86.951V43.935A8.646,8.646,0,0,1,8.636,35.3H46.62a1.467,1.467,0,1,1,0,2.934H8.636a5.709,5.709,0,0,0-5.7,5.7v4.373l33.558,16.3a6.321,6.321,0,0,0,5.553,0l16.4-7.957a1.467,1.467,0,0,1,1.281,2.64l-16.4,7.957a9.237,9.237,0,0,1-8.115,0L2.934,51.57v35.38a5.709,5.709,0,0,0,5.7,5.7H69.9a5.708,5.708,0,0,0,5.7-5.7v-33.4a1.467,1.467,0,0,1,2.934,0ZM22.915,70.6l-14.3,14.3a1.467,1.467,0,0,0,2.075,2.075l14.3-14.3A1.467,1.467,0,0,0,22.915,70.6Zm30.632,0a1.467,1.467,0,0,0,0,2.075l14.3,14.3a1.467,1.467,0,0,0,2.075-2.075l-14.3-14.3a1.467,1.467,0,0,0-2.075,0ZM78.569,38.279v2.258a4.566,4.566,0,0,1-8.286,2.637,6.841,6.841,0,1,1,2.092-4.919v2.282a1.63,1.63,0,1,0,3.26,0c0-2.591.334-6.179-3.038-9.472a10.083,10.083,0,1,0-7.045,17.3,1.467,1.467,0,0,1,0,2.934,13.008,13.008,0,0,1-13.013-13.33c.263-11.162,13.9-17.021,22.108-9a12.917,12.917,0,0,1,3.922,9.313Zm-9.128-.023a3.912,3.912,0,1,0-3.912,3.912A3.917,3.917,0,0,0,69.441,38.256Z" transform="translate(0 -25.249)" fill="#5f5d5d"/>
</svg>
