<svg xmlns="http://www.w3.org/2000/svg" width="22.284" height="18.11" viewBox="0 0 22.284 18.11">
  <g id="Group_4" data-name="Group 4" transform="translate(-153.515 -356.485)">
    <path id="Path_7" data-name="Path 7" d="M153.515,372.541a13,13,0,0,0,20-11.546,9.258,9.258,0,0,0,2.281-2.367,9.088,9.088,0,0,1-2.625.72,4.576,4.576,0,0,0,2.01-2.529,9.157,9.157,0,0,1-2.9,1.11,4.575,4.575,0,0,0-7.79,4.17,12.972,12.972,0,0,1-9.423-4.778,4.577,4.577,0,0,0,1.414,6.105,4.557,4.557,0,0,1-2.071-.572,4.577,4.577,0,0,0,3.667,4.541,4.562,4.562,0,0,1-2.064.078,4.573,4.573,0,0,0,4.27,3.176A9.191,9.191,0,0,1,153.515,372.541Z" transform="translate(0 0)" fill="#757268"/>
  </g>
</svg>
