<svg xmlns="http://www.w3.org/2000/svg" width="23.281" height="16.005" viewBox="0 0 23.281 16.005">
  <g id="youtube_5_" data-name="youtube (5)" transform="translate(0 -80)">
    <g id="Group_93" data-name="Group 93" transform="translate(0 80)">
      <path id="Path_447" data-name="Path 447" d="M22.291,81.542c-.631-1.123-1.317-1.33-2.712-1.408-1.394-.095-4.9-.134-7.936-.134s-6.549.039-7.942.132-2.079.285-2.717,1.41S0,84.6,0,88v.012c0,3.387.335,5.334.985,6.444S2.308,95.781,3.7,95.876s4.9.13,7.943.13,6.542-.048,7.937-.128,2.081-.3,2.712-1.422c.656-1.11.988-3.057.988-6.444V88C23.281,84.6,22.949,82.664,22.291,81.542ZM8.73,92.368v-8.73L16.005,88Z" transform="translate(0 -80)" fill="#757268"/>
    </g>
  </g>
</svg>
